<svg width="800" height="143" viewBox="0 0 800 143" fill="none" xmlns="http://www.w3.org/2000/svg">
<path d="M142.857 71.5C142.857 110.988 110.877 143 71.4285 143C31.9796 143 0 110.988 0 71.5C0 32.0116 31.9796 0 71.4285 0C110.877 0 142.857 32.0116 142.857 71.5Z" fill="white"/>
<path fill-rule="evenodd" clip-rule="evenodd" d="M58.6448 60.4373C60.1455 49.1834 69.9462 25.9165 97.1428 22.88C96.9574 23.012 96.686 23.191 96.3422 23.4179C91.4817 26.6251 72.1401 39.3876 76.5887 63.7668C77.3195 63.7668 77.8938 63.9 78.0895 63.9666L79.003 66.0309C79.1335 66.3638 79.1335 67.0963 78.0895 67.3627C76.7845 67.6957 69.8026 69.8266 70.3247 75.4868C70.5857 77.9507 72.8694 79.8818 74.827 80.4811C74.8077 80.5401 74.7645 80.6376 74.7062 80.7692C74.1719 81.9752 72.3731 86.0354 76.1972 89.3377C76.8758 89.8704 78.1765 90.5363 78.742 90.8027C77.698 92.867 76.9019 97.5284 82.0698 99.6593C82.2264 99.7125 82.2656 99.8147 82.2656 99.8591C85.0713 99.5039 91.0353 100.512 92.4447 107.384C92.6404 108.516 92.5099 111.646 91.2702 113.244C90.957 113.83 90.0087 114.864 89.5737 115.308C88.6601 115.996 86.9245 117.865 87.2899 119.836C87.2899 120.036 87.1594 120.169 86.9636 120.103C86.9182 120.087 86.5956 119.921 86.1031 119.668C84.4721 118.83 80.9785 117.034 79.525 116.573C78.0112 116.094 76.2842 115.752 75.61 115.641C75.4142 115.53 74.9575 114.922 74.6965 113.377C74.4877 113.484 73.9135 113.999 73.6525 114.243C73.4784 114.331 73.026 114.389 72.6084 113.91C72.1908 113.43 71.6514 112.6 71.4339 112.245C71.3687 112.112 71.3948 111.739 72.0212 111.313C71.6558 110.78 71.4774 110.602 71.4339 110.58L70.5204 110.713L70.0637 109.848L70.6509 108.982C70.5422 108.693 70.1289 108.183 69.3459 108.449C69.0849 108.13 68.8456 107.695 68.7586 107.517L69.2806 106.785L68.8891 106.185L68.1061 106.119L67.5189 105.32L68.1061 104.587L67.5189 103.788H66.7359L66.3444 103.122C66.3226 103.011 66.3966 102.669 66.8664 102.19C66.501 101.604 66.3226 101.413 66.2791 101.391L65.5613 101.324C63.8648 98.0833 60.1716 89.0447 58.971 78.8163C58.971 78.5278 59.0081 78.1069 59.0551 77.5724C59.2578 75.2696 59.6463 70.8574 58.0575 65.8311C57.7965 65.2451 57.3397 64.0776 57.144 63.567V61.0366C57.1222 60.8368 57.3919 60.4373 58.6448 60.4373ZM90.3567 108.982C90.3567 112.513 87.26 115.375 83.4401 115.375C79.6202 115.375 76.7193 112.513 76.7193 108.982C76.7193 105.451 79.3946 102.523 84.3536 102.523C88.1735 102.523 90.3567 105.451 90.3567 108.982Z" fill="#151820"/>
<path d="M51.4285 100.1C51.4285 104.839 47.591 108.68 42.8571 108.68C38.1232 108.68 34.2857 104.839 34.2857 100.1C34.2857 95.3614 38.1232 91.52 42.8571 91.52C47.591 91.52 51.4285 95.3614 51.4285 100.1Z" fill="#151820"/>
<path d="M208.628 46.6238V65.0477H240.863V77.9941H208.628V103.389H192.511V33.6773H245.141V46.6238H208.628Z" fill="white"/>
<path d="M299.002 88.4509H266.668L260.499 103.389H243.984L275.025 33.6773H290.943L322.083 103.389H305.17L299.002 88.4509ZM293.928 76.2016L282.884 49.5119L271.841 76.2016H293.928Z" fill="white"/>
<path d="M373.68 103.389L360.249 83.9694H345.426V103.389H329.308V33.6773H359.453C365.622 33.6773 370.961 34.7064 375.471 36.7646C380.048 38.8227 383.563 41.744 386.017 45.5283C388.471 49.3127 389.698 53.7942 389.698 58.9728C389.698 64.1514 388.438 68.6328 385.917 72.4172C383.463 76.1352 379.948 78.99 375.372 80.9818L390.991 103.389H373.68ZM373.382 58.9728C373.382 55.0556 372.122 52.068 369.601 50.0098C367.081 47.8853 363.4 46.823 358.558 46.823H345.426V71.1226H358.558C363.4 71.1226 367.081 70.0603 369.601 67.9357C372.122 65.8112 373.382 62.8235 373.382 58.9728Z" fill="white"/>
<path d="M465.842 103.389L465.742 61.5621L445.248 96.0196H437.985L417.59 62.4584V103.389H402.468V33.6773H415.799L441.865 76.9983L467.533 33.6773H480.765L480.964 103.389H465.842Z" fill="white"/>
<path d="M520.37 104.584C514.865 104.584 509.525 103.854 504.352 102.393C499.245 100.866 495.133 98.9077 492.015 96.5176L497.487 84.3678C500.472 86.5587 504.02 88.3181 508.132 89.646C512.245 90.9738 516.357 91.6377 520.469 91.6377C525.046 91.6377 528.428 90.9738 530.617 89.646C532.806 88.2518 533.9 86.426 533.9 84.1686C533.9 82.5088 533.237 81.1478 531.91 80.0855C530.65 78.9568 528.992 78.0605 526.936 77.3966C524.946 76.7327 522.227 76.0024 518.778 75.2057C513.472 73.9442 509.127 72.6828 505.745 71.4213C502.362 70.1599 499.444 68.1349 496.99 65.3464C494.602 62.5579 493.408 58.84 493.408 54.1925C493.408 50.1426 494.503 46.491 496.691 43.2378C498.88 39.9182 502.163 37.2957 506.541 35.3703C510.985 33.4449 516.39 32.4823 522.757 32.4823C527.201 32.4823 531.546 33.0134 535.79 34.0757C540.035 35.1379 543.749 36.665 546.933 38.6567L541.959 50.9061C535.525 47.2545 529.091 45.4287 522.658 45.4287C518.148 45.4287 514.798 46.1591 512.609 47.6197C510.487 49.0803 509.426 51.0057 509.426 53.3958C509.426 55.7859 510.653 57.5785 513.107 58.7736C515.627 59.9023 519.441 61.0309 524.548 62.1596C529.854 63.421 534.199 64.6825 537.581 65.944C540.964 67.2054 543.849 69.1972 546.237 71.9193C548.691 74.6413 549.918 78.3261 549.918 82.9736C549.918 86.9571 548.79 90.6087 546.535 93.9283C544.346 97.1815 541.03 99.7708 536.586 101.696C532.142 103.622 526.737 104.584 520.37 104.584Z" fill="white"/>
<path d="M586.3 76.0024L576.948 85.762V103.389H560.931V33.6773H576.948V66.2427L607.79 33.6773H625.698L596.846 64.7489L627.389 103.389H608.586L586.3 76.0024Z" fill="white"/>
<path d="M634.576 33.6773H650.693V103.389H634.576V33.6773Z" fill="white"/>
<path d="M731.092 33.6773V103.389H717.86L683.139 61.0641V103.389H667.221V33.6773H680.552L715.174 76.0024V33.6773H731.092Z" fill="white"/>
<path d="M770.452 104.584C764.947 104.584 759.608 103.854 754.434 102.393C749.327 100.866 745.215 98.9077 742.097 96.5176L747.569 84.3678C750.554 86.5587 754.103 88.3181 758.215 89.646C762.327 90.9738 766.439 91.6377 770.551 91.6377C775.128 91.6377 778.51 90.9738 780.699 89.646C782.888 88.2518 783.982 86.426 783.982 84.1686C783.982 82.5088 783.319 81.1478 781.992 80.0855C780.732 78.9568 779.074 78.0605 777.018 77.3966C775.028 76.7327 772.309 76.0024 768.86 75.2057C763.554 73.9442 759.21 72.6828 755.827 71.4213C752.444 70.1599 749.526 68.1349 747.072 65.3464C744.684 62.5579 743.49 58.84 743.49 54.1925C743.49 50.1426 744.585 46.491 746.773 43.2378C748.962 39.9182 752.245 37.2957 756.623 35.3703C761.067 33.4449 766.472 32.4823 772.84 32.4823C777.283 32.4823 781.628 33.0134 785.873 34.0757C790.117 35.1379 793.832 36.665 797.015 38.6567L792.041 50.9061C785.607 47.2545 779.174 45.4287 772.74 45.4287C768.23 45.4287 764.88 46.1591 762.692 47.6197C760.569 49.0803 759.508 51.0057 759.508 53.3958C759.508 55.7859 760.735 57.5785 763.189 58.7736C765.709 59.9023 769.523 61.0309 774.63 62.1596C779.936 63.421 784.281 64.6825 787.663 65.944C791.046 67.2054 793.931 69.1972 796.319 71.9193C798.773 74.6413 800 78.3261 800 82.9736C800 86.9571 798.872 90.6087 796.617 93.9283C794.429 97.1815 791.112 99.7708 786.668 101.696C782.225 103.622 776.819 104.584 770.452 104.584Z" fill="white"/>
</svg>
